<?xml version="1.0" encoding="utf-8"?>
<!-- Generator: Adobe Illustrator 18.1.1, SVG Export Plug-In . SVG Version: 6.00 Build 0)  -->
<svg version="1.1" id="Layer_1" xmlns="http://www.w3.org/2000/svg" xmlns:xlink="http://www.w3.org/1999/xlink" x="0px" y="0px"
	 viewBox="0 0 456 271" enable-background="new 0 0 456 271" xml:space="preserve">
<g>
	<path fill="#FFFFFF" d="M297.7,202.4c-0.7,3.2-0.9,5.4-1.7,7.3c-1.3,3.1-4.6,4.6-6.9,2.9c-3.5-2.6-6.9-1.8-10.4-1.8
		c-34.5-0.1-69-0.2-103.5-0.2c-1.3,0-2.7,0-3.8,0.6c-6.4,3.2-9.4,1.6-10.3-5.6c-0.1-0.8-0.1-1.6-0.3-3.5c-7.6,0-15,0.3-22.5-0.1
		c-24.6-1.2-49.2-2.7-73.8-4c-7.8-0.4-12.4-5-15.7-11.3c-0.5-1,0.4-2.9,0.9-4.4c0.6-1.8,2.1-3.4,2.2-5.2c0.3-7.8,3.1-10.6,11-10.3
		c10.7,0.4,21.3,1,32,1.5c2.2,0.1,4.3,0.1,6.5,0.3c5,0.3,10.5-1.5,13.7,5.4c0.2-0.5,0.5-1,0.7-1.5c0.4-4.4,0.7-8.8,1.3-13.2
		c2.1-14.2,9.1-24.2,23.5-28.7c14.7-4.6,29.7-7.4,45.1-8.7c-3.9,0-7.9,0-12.6,0c3.8-5.3,8.3-8.1,13.9-9c6.1-1.1,12.3-1.4,18.2-3.3
		c4-1.3,9.1-3.7,10.7-7c3.4-7,9.2-6.5,14.6-6.5c4.9,0,9.7,0.8,12.4,6.9c1.4,3.2,6.5,5.4,10.4,6.6c5.7,1.8,11.7,2.3,17.7,3.2
		c5.8,0.9,10.1,3.8,14.5,8.8c-4.8,0-8.8,0-11,0c11.3,2.2,24.4,4,37.1,7.4c22.1,5.8,29.6,16.1,30.4,39c0.1,1.5,0.1,3,0.3,5.3
		c8.4-7.8,18.2-4.2,27.3-5.2c9.4-1,19-1.2,28.4-1.3c6.3,0,8.8,3.2,8.6,9.5c0,1.4-0.1,3.5,0.8,4.2c6,4.8,1.2,8.8-1.6,11.4
		c-3,2.9-7.6,5.3-11.7,5.6c-27.7,1.9-55.5,3.1-83.3,4.5C306.3,202.5,301.9,202.4,297.7,202.4z M124.6,157.6
		c0.4,3.4,0.8,6.7,1.2,10.1c0.2,1.9,0.3,3.9,0.5,5.8c0.5,0,1-0.1,1.6-0.1c0-5.4,0.5-10.8-0.2-16c-0.4-3.2-2.1-1.2-2.9,0.4
		c-2,5.1-2.6,10.3-1.8,15.6c0.6,0,1.1,0.1,1.7,0.1C124.6,168.1,124.6,162.9,124.6,157.6z M135.9,145.2c0-0.8,0-1.5,0-2.3
		c4.6,0.9,4,4.7,4.1,7.8c0.2,7.6,0.1,15.2,0.1,22.8c0.6,0.2,1.1,0.5,1.7,0.7c0.7-1.2,2.1-2.4,2.1-3.7c0.2-6,0-12,0.2-18
		c0.1-3.6,0.5-7.1,0.8-10.7c0,10.6,0,21.1,0,31.7c1.3-0.3,1.7-0.7,1.7-1.1c0.1-9.5,0.1-18.9,0-28.4c0-0.7-1.2-1.4-1.9-2.1
		c0.2-1.2,0.5-2.4,0.9-4.9c-3.8,2.3-6.8,4-9.7,5.8c-3.3,2.8-6.5,5.7-10,8.7c6.3,4.7,4.3,10.5,4.9,15.8c0.2,2.1,1.2,4.2,1.9,6.2
		c0.5-2.1,1.3-4.1,1.5-6.2c0.5-6.6,0.8-13.1,1.2-19.7c0,8.6,0,17.1,0,25.7c1.4-0.6,1.7-1.3,1.7-2c0-7.8,0-15.6-0.1-23.4
		C137.1,147.2,136.3,146.2,135.9,145.2z M155.4,134.1c-2.8,1.2-5.5,2.5-7.6,3.4c0.7,4,1.6,7.7,1.8,11.4c0.3,7,0,14,0.2,21
		c0,1.4,1.2,2.9,1.8,4.3c0.5-1.4,1.5-2.7,1.5-4.1c0.1-9.4,0.1-18.8,0.1-28.2c0.4,0,0.9,0,1.3,0c0,10.7,0,21.4,0,32.1
		c0.5,0,1.1,0,1.6-0.1c0-1.7,0-3.4,0-5.2C155.9,157.2,155.6,145.6,155.4,134.1c1.2,3.3,3.2,6.6,3.4,9.9c0.5,8.8,0.1,17.6,0.2,26.3
		c0,1.2,0.3,2.5,0.5,3.7c0.5,0,1-0.1,1.5-0.1c0-3.7-0.4-7.5,0.1-11.2c0.5-3.3,2.1-6.4,3.3-9.6c0.3-0.7,0.9-1.4,0.9-2.2
		c-0.1-4.9-0.4-9.9-0.6-14.8c0-0.9,0.4-1.8,0.7-2.7c0.8,1.5,2.2,3,2.4,4.6c0.4,3.6,0,7.4,0.5,10.9c0.4,2.2,2,4.2,3,6.3
		c0.6-0.2,1.1-0.5,1.7-0.7c0-6,0-11.9,0-17.9c0.3,0,0.6,0,0.9,0c0,7.8,0,15.6,0,23.4c0.3,0,0.6,0,1,0c0-9.4,0-18.8,0-28.1
		c0.5-0.1,1-0.2,1.6-0.3c0.7,2.8,1.7,5.7,1.9,8.5c0.3,5.3,0,10.7,0.2,16c0.1,1.4,1.3,2.8,2,4.2c0.9-1.4,2.4-2.9,2.4-4.3
		c0.3-6.5,0.1-13,0.1-19.5c0.1,0,0.3,0,0.4,0c0,4,0,8,0,11.9c0,3.7,0,7.5,0,11.2c0.4,0,0.9-0.1,1.3-0.1c0-9.6,0-19.2,0-29.1
		c-3.3,0.2-5.8,0.1-8.2,0.5c-3.8,0.6-7.5,1.6-11.2,2.4C162.2,133.7,158.8,133.9,155.4,134.1z M205.5,136.8
		c-1.7,9.2-1.2,20.3,1.6,23.3c0-7.7,0.1-14.8-0.1-21.9c0-1.3-0.8-2.6-1.2-4c-0.5-1-1-3-1.6-3c-5.9-0.2-11.8-0.1-16.5-0.1
		c0.5,9.5,0.9,19.1,1.4,28.7c0.5,0.3,1,0.5,1.4,0.8c0.9-1.3,2.2-2.5,2.6-3.9c0.5-1.7,0-3.6,0.1-5.4c0.6-5.9,1.2-11.7,1.8-17.6
		c-1.8,8.6-1.7,17.3,0.2,25.9c0.9-5.7,1-11.5,0.9-17.2c-0.1-2.9-0.7-5.7-1.1-8.6c0.5-2.7,1.9-2.7,2.8-0.4c0.9,2.2,1.2,4.8,1.3,7.2
		c0.2,6.2,0.1,12.5,0.1,18.9c1.9,0,3.3,0,5.1,0c0-4.4-0.2-8.6,0-12.7C204.6,143.6,205.1,140.2,205.5,136.8z M280.5,136.9
		c-1.2,7.7-0.9,15.3,0.6,22.9c1-7.3,1.1-14.7,1-22c0-1.2-0.8-2.3-1.2-3.5c0.4-0.8,0.9-1.5,1.6-2.8c4.8,7.8,1.3,16.1,3,23.6
		c2.3-1.2,4.4-2.2,6.3-3.2c0-5.9,0-11.9,0-17.8c0.8-0.1,1.6-0.2,2.4-0.3c1,13.4,2.6,26.8,4.2,40.2c0.9-5.2,0.8-10.5,0.9-15.7
		c0.2-6.4,0.5-12.8,0.8-19.2c0,11.6,0,23.2,0,34.8c0.6,0,1.2,0,1.7,0c0-11.4,0-22.7-0.1-34.1c0-0.2-1.2-0.4-1.8-0.6
		c0.5-1.2,1.1-2.3,1.6-3.5c0.6,0.1,1.1,0.1,1.7,0.2c0.5,3,1.5,5.9,1.5,8.9c0.2,8.6,0,17.2,0.2,25.8c0,1.2,1,2.3,1.6,3.5
		c0.6-1.1,1.7-2.2,1.7-3.3c0.2-5.8,0-11.6,0.1-17.4c0.1-3.4,0.7-6.8,1-10.2c-1.6,9.3-0.9,28.3,1.6,31c0-10.9,0-21.5,0-32
		c0-0.3-0.7-0.5-1-0.8c0.3-2.1,1.2-3.8,2.7-1c1.1,2.1,1.4,4.8,1.4,7.2c0.2,8.7,0.1,17.5,0.1,26.2c0.5,0.2,0.9,0.5,1.4,0.7
		c0.9-0.9,2.3-1.8,2.6-2.9c0.5-1.5,0.1-3.3,0.2-4.9c0.3-6.9,0.6-13.8,0.9-20.7c0,9.2,0,18.4,0,29c1-1.6,1.4-2,1.4-2.4
		c0.1-7.9,0.1-15.9,0.1-23.8c0-0.9-1-1.8-1.5-2.7c0.6-2.1,1.6-4.1,3.1-0.7c1,2.2,1.2,4.8,1.3,7.3c0.2,6.1,0,12.3,0.1,18.4
		c0,1,1.1,1.9,1.7,2.9c0.6-0.9,1.8-1.8,1.8-2.8c0.2-3.5,0.1-6.9,0.1-10.4c0.4,0,0.7,0,1.1,0c0,4.3,0,8.6,0,12.9
		c1.2-0.4,1.6-0.9,1.6-1.2c-0.2-5.4-1.6-11.2-0.2-16.2c1.1-4.2,0-6.5-2.4-8.8c-2.6-2.5-5.7-4.5-8.6-6.7c-0.7-0.5-1.5-0.7-2.2-1.1
		c-15-6-30.5-9.3-46.6-9.1c-6.6,0.1-13.1,1-19.7,1.6c-10.3,0.6-20.6,1.1-30,1.7c0.4,7.4,0.8,15.1,1.2,22.8c7.8-3.7,3.7-10.8,6-16.2
		c0,4,0,8.1,0,12.1c0.3,0,0.6-0.1,0.9-0.1c0-5.8,0-11.5,0-17.3c0.7,0,1.5-0.1,2.2-0.1c0.5,4.3,1.4,8.5,1.2,12.8
		c-0.1,4.1,1.1,6.9,5.4,9c0-6,0-11.6,0-17.3c0.4,0,0.9,0,1.3,0c0,6.4,0,12.8,0,19.3c0.8-7.5,0.8-15,0.8-22.4c0-0.8,0.1-1.5,0.2-2.3
		c0.7,0.3,1.8,0.6,1.9,1.1c0.7,2.4,1.4,4.8,1.5,7.3c0.2,5.6,0.1,11.2,0.1,16.8c5.2,0.5,5.3,0.5,5.3-3.6c0.1-6,0-12,0-18
		c0.3,0,0.7,0,1,0c0,7.2,0,14.5,0,21.7c0.5,0,1,0,1.5,0c0-1.7,0-3.4,0-5.2c-0.2-7.3-0.4-14.7-0.7-22c1.2,3.2,3.2,6.4,3.5,9.7
		c0.6,5.9,0.2,11.9,0.2,18.1c2.9-0.1,5.2-0.2,7.2-0.3c0-9.3,0-18.3,0-27.3c0.5-0.1,1.1-0.2,1.6-0.3c0.6,2.7,1.6,5.4,1.8,8.1
		c0.3,5.3,0.2,10.6,0.1,16c-0.1,3.7,1.3,4.7,5,3.2c0-4.5-0.1-9,0-13.5c0.1-3.2,0.7-6.4,1.1-9.7c0,7.9,0,15.7,0,23.6
		c0.4,0,0.8,0,1.3,0c0-8.3,0-16.6,0-24.9c0,0-0.6,0-0.9,0c0.3-0.9,0.6-1.9,1-2.8c0.5,0,1-0.1,1.4-0.1c0.6,2.6,1.6,5.1,1.7,7.7
		c0.3,5.3-0.1,10.6,0.2,15.9c0.1,1.5,1.3,3,2,4.5c0.7-1.5,1.9-2.9,2.1-4.5c0.4-2.3,0-4.6,0.1-6.9
		C279.7,144.6,280.1,140.7,280.5,136.9z M209.5,159c5.6,0.6,5.7,0.6,5.8-3c0.1-5.4,0-10.8,0-16.3c0.4,0,0.7,0,1.1,0
		c0,6.4,0,12.9,0,19.3c0.3,0,0.6,0,0.9-0.1c0-8.8,0-17.6,0-26.5c-3.3-0.2-5.9-0.4-7.8-0.6C209.5,141,209.5,149.9,209.5,159z
		 M193.3,120.8c0,0.3,0,0.6,0,1c4,0.3,7.9,0.6,11.9,0.8c9.9,0.6,19.8,1.9,29.7,1.7c9.9-0.2,19.8-1.9,29.7-2.9c0-0.2,0-0.4,0-0.7
		C240.8,120.8,217,120.8,193.3,120.8z M261.2,174.6c0-3.5,0-6.4,0-9.5c-2.6-0.1-4.9-0.3-7.3-0.4c0,3.7,0,6.8,0,10.2
		C256.5,174.9,258.7,174.8,261.2,174.6z M243.2,164.8c0,3.6,0,6.8,0,10c5.1,0.1,5.1-0.1,5-6.4C248.2,164.7,246.8,163.7,243.2,164.8z
		 M214.9,174.8c0-3.8,0-7,0-10.6c-1.8,0.2-3.1,0.4-4.4,0.5c0,3.6,0,6.8,0,10C212.1,174.8,213.4,174.8,214.9,174.8z M199.6,165.1
		c0,3.5,0,6.5,0,9.9c1.8-0.2,3.2-0.3,4.5-0.4c0-3.4,0-6.4,0-9.7C202.4,165,201,165,199.6,165.1z M265.1,164.9
		c-1.8,8.7-1.1,10.4,3.9,9.2C269.9,165.3,269.9,165.2,265.1,164.9z M221.2,175.1c1.7-0.1,3.1-0.2,4.4-0.2c1.2-7.5,1-8-4.4-9.8
		C221.2,168.2,221.2,171.3,221.2,175.1z M236.8,165.3c-4.4,1.2-6.9,7-4,9.8c1.1-0.1,2.5-0.2,4-0.3
		C236.8,171.4,236.8,168.4,236.8,165.3z M276.3,164.4c-0.4,0.4-0.8,0.7-1.2,1.1c0,2.4-0.3,4.9,0.1,7.3c0.1,0.8,1.9,1.3,3,1.9
		c0.4-2.6,1-5.2,1-7.8C279.1,166,277.3,165.2,276.3,164.4z M192.9,165.3c-4.6,0-5.2,1.8-3.4,9.2C193.9,174.6,194,174.2,192.9,165.3z
		 M177.5,169.9c1.4,2,2.3,3.4,3.2,4.8c0.8-1.6,2.3-3.2,2.3-4.9c0.1-1.5-1.3-3.1-2.1-4.6C179.9,166.7,178.9,168.1,177.5,169.9z
		 M333.5,173.3c0.6,0,1.2-0.1,1.7-0.1c-0.3-4.3-0.7-8.5-1-12.8c-0.2,0-0.5,0.1-0.7,0.1C333.5,164.7,333.5,169,333.5,173.3z"/>
	<path fill="#FFFFFF" d="M233.7,9.8c0,7.3,0,13.9,0,21c-7.2,1.2-14.7,2.5-22.4,3.8c0,2.2,0,4.1,0,6.7c5.4-0.5,10.6-0.9,16.3-1.4
		c0,5.8,0,11.2,0,17.3c-4.8,0.8-10,1.6-15.4,2.4c0,2.5,0,4.9,0,7.9c7.8-0.8,15.4-1.5,23.4-2.3c0.4,8.1,0.8,15.9,1.2,24.3
		c-15.8,2.1-31.4,4.1-47.8,6.3c-2.3-26.7-4.5-53.2-6.8-80.4C199.1,13.5,215.9,11.7,233.7,9.8z"/>
	<path fill="#FFFFFF" d="M344.7,57.9c-2.1,6.1-4.2,12.1-6.1,17.8c-5.9-2.3-11-4.6-16.3-6.1c-1.8-0.5-4.1,0.9-6.2,1.4
		c1.4,1.6,2.6,3.6,4.3,4.6c2.3,1.3,5.1,1.6,7.5,2.7c7.9,3.4,11.5,10.7,9.6,19.2c-2.7,11.5-10.4,18.3-22.3,19.5
		c-11.8,1.2-23.5,0-34.3-4.7c-12-5.2-23.4-11.8-35.1-17.8c-2.5-1.3-3.1-2.9-2-5.6c2.1-5.1,3.7-10.3,5.7-16c1.3,1.2,2.4,2.1,3.5,3
		c16.9,14.9,37.3,19.8,59.1,20.4c1.3,0,2.6-1.4,4-2.1c-0.9-1.3-1.6-2.8-2.7-3.7c-1.1-0.9-2.7-1.3-4.1-1.7
		c-7.6-2.1-12.8-6.7-13.8-14.7c-1-8,1.8-14.8,8.2-19.8c6.4-5.1,13.9-6.4,21.7-4.5c5.6,1.4,11,3.8,16.4,5.7
		C342.7,56.2,343.7,57,344.7,57.9z"/>
	<path fill="#FFFFFF" d="M130,49.3c-2.7,0.8-4.9,1.4-7.1,2.1c-0.3-0.3-0.5-0.6-0.8-0.9c0.7-0.9,1.3-2.3,2.2-2.7
		c11.5-5.3,23.5-8.5,36.3-7c10.2,1.2,18.1,6.2,21.4,16.3c3.4,10.4,2.2,20.1-6.5,27.9c-0.4,0.3-0.6,0.8-1.2,1.5
		c4.7,6.3,9.4,12.7,14.6,19.7c-7.6,2.6-14.7,5-22.2,7.5c-2.9-5.6-6-10.7-8.4-16.2c-1.8-4.2-4.2-5.1-8.4-2.7c0.5,6.4,1.1,13,1.6,20.4
		c-7,1-14,2-21.7,3.1c-0.7-5.9-1.4-11.4-1.8-17c-0.1-1,1-2.2,1.9-3.1c1.8-1.8,3.9-3.2,5.5-5c4.7-5.1,6.9-10.3,3.6-17.5
		C135.4,67.2,133,58.3,130,49.3z M148.3,78c5.7-0.8,10.7-2.3,11.8-7.7c0.6-3.1-0.7-7.3-2.7-9.9c-2.5-3.3-6.7-2.9-10.7-0.9
		C147.2,65.6,147.7,71.6,148.3,78z"/>
	<path fill="#FFFFFF" d="M120,45.2c-5.1,1.4-10.1,2.1-14.6,4C94.5,53.8,91,65.9,97.2,75.4c3.9,6,10.8,7.5,16.4,3.4
		c1.4-1,2-3.3,2.9-5c-0.4-0.4-0.9-0.7-1.3-1.1c-3.6,1-7.2,2-11.3,3.1c-1.3-4.9-2.6-9.5-4-14.7c4.7-1.6,9.4-3.3,14-4.9
		c4.7-1.6,9.5-3.1,15-5c1.4,4.4,2.9,8.8,4.3,13.1c1.3,4.1,2.7,8.2,4.1,12.3c3,9-0.3,15.8-10.2,20.3c1.6-7.9-4.1-8.8-9.3-9.9
		c-8.4-1.8-16.8-4.2-25.4-4.9c-4.8-0.4-9.9,1.9-14.9,3.1c-1.1,0.3-2.2,0.6-3.2,0.9C60.5,61.8,76.6,30.8,104.6,27
		c10.9-1.5,11-1.4,13.4,9.3C118.7,39.4,119.4,42.4,120,45.2z"/>
	<path fill="#FFFFFF" d="M269.9,69.9c-0.7-4-0.4-8.1-2.3-10.4c-1.6-1.9-5.8-1.5-9.1-2.2c-1.6,3.4-3,6.5-4.5,9.9
		c-7.6-2.2-14.9-4.2-22.7-6.5c1.8-3.7,3.5-7.1,5.2-10.5c7.4-14.5,14.8-29,22.1-43.7c1.4-2.9,3.1-3.7,6.2-3.2
		c6.9,1.2,13.8,1.9,21.5,3c2.2,21.4,4.4,42.8,6.7,64.9C284.9,70.7,277.5,70.3,269.9,69.9z M268.8,44.4c0-4.9,0-9.1,0-13.3
		c-0.3,0-0.6-0.1-0.9-0.1c-1.6,4-3.3,8-5.1,12.5C265.1,43.8,266.9,44.1,268.8,44.4z"/>
	<path fill="#FFFFFF" d="M344.7,57.9c-1-0.9-2-1.7-3-2.6c-1-1.8-2.5-3.5-3-5.4c-1.6-6.3-2.8-12.7-4.3-19.8c14-3.3,27.9-6.6,42.3-10
		c1,5.7,2,11.2,3,17.3c-6.3,1.9-12.4,3.8-19,5.7c0.2,1.8,0.4,3.5,0.6,5.6c4.7-1,8.9-1.9,13.6-2.9c0.7,4.1,1.5,8,1.8,11.9
		c0.1,1.1-1.3,2.8-2.5,3.2c-3.2,1.2-6.7,2-10.5,3c0.3,2,0.6,3.9,1.1,6.5c6.4-1.4,12.5-2.8,19.3-4.4c1.2,6.7,2.4,13.3,3.9,21.7
		c-14.2-5-27.7-8.2-41.8-2.1c-1.5-8.5-5.7-15.9-1.1-23.9C345.7,60.9,344.9,59.2,344.7,57.9z"/>
	<path fill="#FFFFFF" d="M72.8,200.6c15.9,0.9,30.8,1.8,47,2.8c-2.4,8.1-4.5,15.7-7.1,23.2c-1.6,4.6-5.2,6.9-10.2,7.6
		c-19.1,2.7-24-0.6-27.7-19.8C73.9,209.9,73.5,205.5,72.8,200.6z"/>
	<path fill="#FFFFFF" d="M331.8,203.6c16.6-0.7,31.5-1.3,46.8-2c-0.6,9.2-1.4,18.2-5.9,26.1c-1.6,2.8-5.2,5.7-8.3,6.1
		c-6,0.8-12.3,0.5-18.2-0.6c-2.7-0.5-5.9-3.5-7-6.2C336.3,219.7,334.4,212,331.8,203.6z"/>
	<path fill="#FFFFFF" d="M371.4,90.1c13.4-0.3,25,11.2,25.2,25c0.2,13.6-10.9,25.1-24.7,25.6c-13.8,0.5-25.7-10.9-25.9-24.8
		C345.8,101.5,356.8,90.4,371.4,90.1z M392.5,115.5c0-11.6-9.7-21.3-21.3-21.4c-11.8,0-21.4,9.8-21.3,21.7
		c0.1,11.7,9.8,21.1,21.4,21C383,136.8,392.5,127.2,392.5,115.5z"/>
	<path fill="#FFFFFF" d="M110.5,115.4c0,14-11.4,25.4-25.4,25.3c-13.8-0.1-25.1-11.3-25.1-25c0-14,11.1-25.6,24.6-25.6
		C99.1,90.1,110.5,101.2,110.5,115.4z M63.8,115.6c0,11.8,9.4,21.3,21.1,21.4c11.7,0.1,21.3-9.4,21.4-21.1
		c0.2-11.8-9.6-21.8-21.4-21.7C73.3,94.3,63.9,103.9,63.8,115.6z"/>
	<path fill="#FFFFFF" d="M255.8,8.5c-2,0.2-3.9,0.6-5.9,0.4c-27-2.1-53.9-0.3-80.7,3.1c-5.9,0.7-11.7,2.3-17.5,3.8
		c-12,3.1-18.3,11.3-20.4,23.2c-0.3,1.7-1,3.3-2,4.8c-2.8-11.9,4.6-25.1,17.5-29.1c10.2-3.2,21-5.2,31.7-6.4
		c23.5-2.7,47.1-4.1,70.7-2.2c2.2,0.2,4.4,0.5,6.6,0.7C255.8,7.4,255.8,8,255.8,8.5z"/>
	<path fill="#FFFFFF" d="M123.3,243.4c-1.7,3.6-3.7,2.4-6.1,1c-3.4-2.1-7-1.9-10.2,0.7c-3.1,2.5-4.5,6.1-2.8,9.3
		c1.4,2.7,4.4,5.3,7.3,6.5c3.2,1.3,6.4-0.3,7.9-3.9c-1.7-2.4-7.5,1.8-6.7-4.6c4.3,0,8.4,0,12.5,0c0.1,6.7-3.2,11-9.3,12.4
		c-6.5,1.5-13.2-1.6-15.9-7.3c-2.6-5.6-1-11.9,3.9-15.6C109.6,237.5,117.3,238.1,123.3,243.4z"/>
	<path fill="#FFFFFF" d="M70.9,265.8c-1.9-1.6-3.8-3.2-5.8-4.7c0.2-0.3,0.4-0.7,0.6-1c-2.8,0-5.6-0.2-8.4,0.1
		c-1.2,0.1-2.2,1.4-3.3,2.2c-1.5,1.1-3,2.3-4.6,3.5c-0.4-0.4-0.8-0.8-1.2-1.3c3-7.8,6-15.6,9.2-23.4c0.4-0.9,1.8-2,2.8-2
		c1,0,2.4,1,2.8,1.9c3.2,7.6,6.1,15.4,9.2,23C71.8,264.7,71.3,265.2,70.9,265.8z M56.5,255.7c2.9,0,5.1,0,7.7,0
		c-1.3-3-2.4-5.6-3.9-9.1C58.8,250.1,57.7,252.7,56.5,255.7z"/>
	<path fill="#FFFFFF" d="M77,239c1.8,0.1,3.1,0.2,4.8,0.3c0,5.7-0.3,11.1,0.2,16.5c0.1,1.8,1.8,4.6,3.3,4.9c3.3,0.7,4-2.1,4-4.8
		c0.1-4.3,0.2-8.6,0-12.9c-0.1-3.3,0.9-4.7,4.7-3.6c0,6.3,0.3,12.7-0.1,19.1c-0.3,4.1-4.2,6.6-8.6,6.5c-4.6-0.1-7.9-2.7-8.1-7.1
		C76.8,251.8,77,245.7,77,239z"/>
	<path fill="#FFFFFF" d="M233,252.2c0,1.2,0.1,2.3,0,3.5c-0.6,5.8-3.6,9.2-8.4,9.4c-5.2,0.2-8.7-2.9-9.3-8.9
		c-0.3-3.2-0.1-6.6,0.4-9.8c0.8-4.7,3.7-7.3,8.6-7.2c4.9,0.1,7.4,3.2,8.4,7.7c0.4,1.8,0.3,3.6,0.5,5.4
		C233.1,252.2,233,252.2,233,252.2z M228.3,251.7c-0.8-3.1,0.8-8.5-4.3-8.4c-4.8,0.1-4,5.3-4,8.7c0,3.5-0.7,8.6,4.2,8.6
		C229.1,260.6,227.7,255.3,228.3,251.7z"/>
	<path fill="#FFFFFF" d="M130,239.2c1.7,0,3,0,4.8,0c0,5.6,0,11.1,0,16.5c0,2.7,0.4,5.6,3.7,5c1.5-0.3,3.3-3,3.6-4.7
		c0.5-4.4,0.4-9,0.2-13.4c-0.1-3.4,1.3-4.1,4.7-3.2c0,6.2,0.3,12.7-0.1,19.1c-0.2,4.1-4.1,6.7-8.6,6.6c-4.6-0.1-8-2.7-8.2-7
		C129.8,251.9,130,245.8,130,239.2z"/>
	<path fill="#FFFFFF" d="M369.2,252.2c-0.2,1.8-0.2,4-0.8,6.1c-1.1,4-3.6,6.7-8.1,6.7c-4.7,0.1-7.8-2.3-8.5-6.7
		c-0.6-4-0.5-8.2,0-12.2c0.6-4.5,3.6-7,8.2-7c4.9,0,7.5,3,8.6,7.4C369.1,248.2,369,250.1,369.2,252.2z M364.3,251.8
		c-0.8-3.1,0.8-8.4-4.2-8.5c-4.9,0-4.1,5.1-4.1,8.6c0,3.5-0.8,8.6,4,8.7C365,260.7,363.7,255.4,364.3,251.8z"/>
	<path fill="#FFFFFF" d="M204.5,260.4c2.4,2.2,7.7-2.3,8.4,4.3c-6.1,0-11.9,0-18.6,0c1.2-1.9,2-3.4,3-4.6c2.8-3.1,6.1-5.8,8.3-9.2
		c1.1-1.7,1.5-5.8,0.4-6.9c-2.8-2.6-4.4,0-5.8,2.6c-0.5,1-2.6,1.1-4.4,1.9c-0.2-4.8,1.5-8.1,5.3-8.6c2.9-0.4,7.1,0,8.9,1.9
		c1.7,1.9,2.2,6.3,1.2,8.9C210,254.2,206.9,257.2,204.5,260.4z"/>
	<path fill="#FFFFFF" d="M331.8,248.7c0-5.6,2.2-8.7,6.2-9.2c2.7-0.3,6.4,0.7,8.4,2.4c3.2,2.7,2.5,6.7,0.4,10.1
		c-1.8,2.9-4.2,5.5-6.9,9c2.2,0,3.9-0.2,5.6,0.1c1.2,0.2,2.2,1.2,3.3,1.8c-1,0.7-2,2-3,2c-4.8,0.2-9.6,0.1-15.6,0.1
		c1.3-2.1,2-3.6,3.1-4.8c2.8-3.1,5.9-5.9,8.4-9.2c1.8-2.2,3.4-5.2,0.2-7.4c-2.9-1.9-4.2,0.5-5.6,2.9
		C335.8,247.5,333.8,247.8,331.8,248.7z"/>
	<path fill="#FFFFFF" d="M271.8,248.7c0-5.6,2.2-8.7,6.2-9.2c2.7-0.3,6.4,0.7,8.4,2.4c3.2,2.7,2.5,6.7,0.4,10.1
		c-1.8,2.9-4.2,5.5-6.9,9c2.2,0,3.9-0.2,5.6,0.1c1.2,0.2,2.2,1.2,3.3,1.8c-1,0.7-2,2-3,2c-4.8,0.2-9.6,0.1-15.6,0.1
		c1.3-2.1,2-3.6,3.1-4.8c2.8-3.1,5.9-5.9,8.4-9.2c1.8-2.2,3.4-5.2,0.2-7.4c-2.9-1.9-4.2,0.5-5.6,2.9
		C275.8,247.5,273.8,247.8,271.8,248.7z"/>
	<path fill="#FFFFFF" d="M393.8,253.4c1.3-5.5,2.3-9.9,3.3-14.2c4,0,7.6,0,11.2,0c0.8,3.5,0.8,3.5-7.4,4.1c-0.3,1.3-0.6,2.7-1,4
		c7,1.7,9.7,4.4,9.5,9.2c-0.2,4.4-2.6,7.1-6.7,8.3c-4.2,1.2-8.1-0.8-11-6.3c2.8,0.8,4.8,1.6,6.9,1.8c1.6,0.2,4.3,0,4.7-0.9
		c0.8-1.7,0.6-4.1,0-5.9c-0.2-0.6-2.9-0.5-4.5-0.6C397.4,253,395.9,253.2,393.8,253.4z"/>
	<path fill="#FFFFFF" d="M151.4,259.1c1.7,0.2,3.4,0.6,5.1,0.7c1.6,0.1,3.3,0.1,4.9,0.1c-0.5-1.5-0.6-3.3-1.5-4.5
		c-1.3-1.7-3.3-2.8-4.8-4.3c-2.7-2.6-4.4-5.6-1.9-9.3c2.2-3.2,6.4-3.8,10.3-1.5c0.8,0.5,1.5,1.3,2.5,2.1c-1.2,2.3-2.2,4-5,1.5
		c-0.7-0.6-2.3-0.2-3.5-0.3c0.4,1.1,0.4,2.5,1.1,3.3c1.3,1.5,3,2.6,4.5,3.9c4.3,3.8,5.1,7.9,2.3,11.3c-2.9,3.5-8.5,3.7-12.6,0.5
		c-0.7-0.5-1.4-0.9-2.1-1.3C150.9,260.6,151.2,259.9,151.4,259.1z"/>
	<path fill="#FFFFFF" d="M299.7,254.5c-1-0.4-1.8-0.7-2.5-1.1c-4.6-2.2-6.2-6.1-4.3-10.1c1.8-3.7,6.8-5.4,10.7-3.6
		c4.2,1.9,5.8,6,3.8,10.4c-2.4,4.9-5,9.7-7.7,14.8c-1.3-0.7-2.5-1.2-4.1-2C297,260,298.3,257.4,299.7,254.5z M300.3,241.4
		c-1.6,2.5-3.2,3.9-3.1,5.2c0.2,1.2,2.1,2.3,3.2,3.4c1-1.1,2.8-2.2,2.8-3.3C303.3,245.3,301.8,244,300.3,241.4z"/>
	<path fill="#FFFFFF" d="M179,264.8c-1.9,0-3.2,0-4.8,0c0-7.1,0-14,0-21.3c-1.1-0.2-2.2-0.1-2.9-0.6c-0.8-0.5-1.3-1.5-1.9-2.2
		c0.8-0.6,1.6-1.5,2.5-1.6c3-0.2,6-0.2,9,0c1,0.1,1.8,1.2,2.8,1.8c-0.9,0.7-1.7,1.5-2.6,2.1c-0.5,0.3-1.2,0.2-2,0.3
		C179,250.5,179,257.5,179,264.8z"/>
	<path fill="#FFFFFF" d="M96.5,154.5c0,5.4-4.5,9.8-10,9.7c-5.5-0.1-9.7-4.6-9.6-10c0.2-5.3,4.3-9.3,9.7-9.3
		C92.2,144.7,96.5,149,96.5,154.5z M87.4,148c-3.4-0.4-7.2,2.5-7.2,5.9c-0.1,3.8,2.2,6.4,5.8,6.8c3.7,0.4,6.3-1.8,7-5.5
		C93.6,151.8,90.9,148.4,87.4,148z"/>
	<path fill="#FFFFFF" d="M370.4,144.7c5.5,0.1,9.8,4.6,9.6,10c-0.2,5.4-4.8,9.6-10.3,9.4c-5.2-0.2-9.4-4.6-9.3-9.8
		C360.4,148.8,364.8,144.6,370.4,144.7z M375.7,159.5c0.7-4.4,2-8.9-3-10.7c-2-0.7-6-0.1-6.9,1.4c-1.3,2-1.7,5.9-0.6,8
		C367.5,162.8,371.8,160.3,375.7,159.5z"/>
	<path fill="#FFFFFF" d="M324.8,48.7c-1.3-1.1-2.3-1.5-2.6-2.2c-0.5-1.4-0.8-2.9-0.9-4.4C319.4,25.7,309.7,17,294,13.9
		c-2-0.4-4-1.2-5.9-2.2C307.5,8.2,324.8,25.4,324.8,48.7z"/>
	<path fill="#FFFFFF" d="M137.6,41.5c2-15.3,30-29.9,44.4-23.2c-6.6,1.2-12.3,1.7-17.7,3.4c-5.7,1.7-11.7,3.5-16.4,6.9
		C143.6,31.8,141,37.1,137.6,41.5z"/>
	<path fill="#FFFFFF" d="M378.5,243.4c-1.8-0.3-3-0.4-4.3-0.6c-1.1-2.6,2.5-4,8.7-3.4c0,8.3,0,16.7,0,25.3c-1.4,0-2.6,0-4.4,0
		C378.5,257.6,378.5,250.6,378.5,243.4z"/>
	<path fill="#FFFFFF" d="M385.2,89.8c10.5,4.2,13.8,13.5,14.6,23.1c0.8,10.8-0.5,21.8-1.3,32.7c-0.4,6.2-1.5,12.4-2.3,18.7
		c-0.4,0-0.8-0.1-1.2-0.1c0.8-7.5,2-15,2.4-22.6c0.6-9.7,1.3-19.6,0.6-29.2c-0.6-9.2-4.8-17.2-13.2-22.2
		C384.9,90.1,385.1,89.9,385.2,89.8z"/>
	<path fill="#FFFFFF" d="M315.2,47.5c-3-5.8-5-12.5-9.4-17c-4.3-4.5-11-6.7-16.5-10.2c7.3,0.2,13.6,2.9,18.9,8.1
		C313.6,33.6,316.1,40.1,315.2,47.5z"/>
	<path fill="#FFFFFF" d="M66.2,94.2c-7,9.4-9.3,20.2-8.4,31.6c1,12.9,2.7,25.7,3,38.8c-0.5-3.6-1.2-7.1-1.6-10.7
		c-1-9.1-2.1-18.2-2.9-27.3c-0.9-9.8,0.5-19.3,5.4-27.9c1-1.8,2.6-3.3,4-4.9C65.9,93.9,66,94.1,66.2,94.2z"/>
	<path fill="#FFFFFF" d="M384.8,90.2c-2.7-0.9-5.3-2-8-2.7c-0.9-0.2-2.1,0.5-4,0.9c-0.4-0.4-1.6-1.9-3.2-2.6c-1.8-0.8-4-1.5-5.9-1.2
		c-8,1.3-16,3-23.9,4.6c-0.1-0.4-0.1-0.8-0.2-1.2c5.5-1,11-1.9,16.5-2.9c2.3-0.4,4.5-1,6.7-1.5c1-0.2,2.1-0.7,2.9-0.4
		c6.5,2.1,13,4.4,19.5,6.6C385.1,89.9,384.9,90.1,384.8,90.2z"/>
	<path fill="#FFFFFF" d="M235.1,13.5c5.5,0.3,11,0.5,17,0.8c-2.4,3.1-10.8,3.3-16.9,0.9C235.1,14.7,235.1,14.1,235.1,13.5z"/>
	<path fill="#FFFFFF" d="M119.8,89.8c-9.9-1.9-19.8-3.8-29.7-5.7c0.1-0.4,0.1-0.7,0.2-1.1c10,1.9,20,3.9,29.9,5.8
		C120.1,89.1,120,89.5,119.8,89.8z"/>
	<path fill="#FFFFFF" d="M65.7,93.7c5.7-5.5,12.7-8,21.5-8.6c-1.6,1.7-2.6,2.9-3,3.3c-2.2-0.4-3.7-1.2-4.7-0.7
		c-4.5,2-8.8,4.3-13.2,6.5C66,94.1,65.9,93.9,65.7,93.7z"/>
	<path fill="#FFFFFF" d="M256.5,257.9c-3.7,0-6.1,0-9.2,0c0.1-1.2,0.1-3.3,0.4-3.3c2.4-0.4,4.9-0.5,7.3-0.3
		C255.5,254.3,255.8,256.2,256.5,257.9z"/>
	<path fill="#FFFFFF" d="M318.6,261c-2.2,3.4-3.6,5.7-5.1,7.9c-0.6-0.3-1.2-0.5-1.9-0.8c0.8-2.4,1.5-4.8,2.6-7
		C314.5,260.6,316.4,261,318.6,261z"/>
	<path fill="#FFFFFF" d="M371.1,96c10.8,0,19.4,8.5,19.5,19.2c0.1,10.8-8.8,19.8-19.7,19.7c-10.7-0.1-19.3-8.8-19.2-19.6
		C351.7,104.5,360.2,96,371.1,96z M371.3,132.1c9.3-0.1,16.8-7.8,16.7-17c-0.1-9.3-7.8-16.7-17.1-16.6c-9.3,0.1-16.8,7.8-16.7,17
		C354.3,124.8,362,132.2,371.3,132.1z"/>
	<path fill="#FFFFFF" d="M104.4,115.3c0.1,10.8-8.4,19.5-19.1,19.7c-10.7,0.2-19.5-8.3-19.7-19.1C65.4,104.9,74,96,85,96
		C95.7,96,104.3,104.5,104.4,115.3z M84.9,132.1c9.4,0.1,17-7.4,17-16.6c0.1-9.2-7.5-16.9-16.8-17c-9.2-0.1-16.9,7.5-17,16.7
		C68,124.5,75.5,132.1,84.9,132.1z"/>
</g>
</svg>
