<?xml version="1.0" encoding="utf-8"?>
<!-- Generator: Adobe Illustrator 18.1.1, SVG Export Plug-In . SVG Version: 6.00 Build 0)  -->
<svg version="1.1" id="Layer_1" xmlns="http://www.w3.org/2000/svg" xmlns:xlink="http://www.w3.org/1999/xlink" x="0px" y="0px"
	 viewBox="0 0 612 391" enable-background="new 0 0 612 391" xml:space="preserve">
<g>
	<path fill="#FFFFFF" d="M273,227.7c0.5,5.2,0.6,10.5,1.4,15.6c6,39.8,12.2,79.7,18,119.5c0.7,4.7-0.6,9.6-1,14.5
		c-1.3,0.1-2.5,0.2-3.8,0.3c-1.3-7.7-2.7-15.4-3.8-23.1c-4.4-30.9-8.8-61.8-13.1-92.7c-1.4-9.8-2.6-19.5-3.7-29.3
		c-3.2-28.2-5.4-56.6-9.6-84.7c-4.1-27.2-10.1-54.2-15.5-81.2c-2.6-13-5.6-25.9-8-38.9c-0.6-3.4,0-7.3,1-10.7
		c1.2-4.5,4.8-6.6,9.2-4.5c5.5,2.7,11.3,5.4,15.9,9.3c17,14.7,28.9,31.8,33.1,55.1c7.1,39.7,3.2,77.6-13.2,113.9
		c-5.8,12.8-4.5,22,2.8,34c23.2,38.4,36.5,80.5,41.8,125c0.7,5.9,1.6,11.8,2,17.7c0.2,3.1-0.7,6.3-3,9.3c-5-25.9-8-52.3-15.5-77.5
		c-7.5-25.2-18-49.8-32.6-72.1C274.6,227.5,273.8,227.6,273,227.7z M269.8,198c2.1-3.6,3.6-5.5,4.5-7.7
		c19.9-44.3,20.5-89.4,3.7-134.6C273,42,264.2,29.9,251.1,22c-6.7-4-10.6-2.3-10.5,5.3c0.1,8.1,1.3,16.3,3,24.2
		c6,29.2,12.9,58.2,18.4,87.5C265.5,157.9,267.1,177.1,269.8,198z"/>
	<path fill="#FFFFFF" d="M197.3,241.6c-6.1,2.6-9.1,3.9-12,5.2c-0.7-0.7-1.3-1.3-2-2c1.8-2.2,3.1-5.3,5.4-6.4
		c5.6-2.8,6.6-7.2,5.8-12.7c-1.4-10.3-2.8-20.7-4-31.1c-0.4-3.4-0.1-6.9,1.5-10.5c8.9,13,6.3,28.6,10.7,44.7
		c10.1-8.8,19.6-16.8,28.8-25.2c1.1-1,1.3-3.6,1.1-5.4c-4.2-35.6-8.5-71.1-13-106.6c-1.5-11.5-4.1-22.8-5.9-34.2
		c-0.5-3.3-0.1-6.7-0.1-10.1c1.2-0.2,2.5-0.4,3.7-0.6c1.2,4.1,2.9,8.2,3.5,12.4c3.1,21.2,6,42.5,8.6,63.7
		c2.6,20.4,4.7,40.8,7.1,61.2c0.4,3.5,1.4,6.9,2.2,11.1c4-2.6,6.9-4.5,9.9-6.4c0.6,0.4,1.3,0.9,1.9,1.3c-1.6,2.8-3.4,5.5-4.9,8.3
		c-1.7,3.4-4.7,7.1-4.4,10.5c3.3,39.2,7,78.5,10.9,117.7c0.9,9.2,3.2,18.3,4.5,27.5c0.3,2.4-0.4,5-2.5,7.6
		c-8.5-23.8-10.5-48.6-13.1-73.2c-2.6-24.7-5.6-49.4-8.5-75.3c-9.9,8.1-19.8,16-29.5,24.4c-1.3,1.1-1,4.2-1.1,6.4
		c-1,20.8-1.2,41.7-3,62.4c-1.4,17.1-4.6,34-7,51c-0.3,1.8-1.4,3.5-2.1,5.3c-0.9,0-1.9,0.1-2.8,0.1c-0.4-4.1-1.5-8.3-0.9-12.2
		c2-14,5.3-27.8,6.6-41.8C194.8,287,195.7,265.1,197.3,241.6z"/>
	<path fill="#FFFFFF" d="M318.5,222.2c-5.4-0.3-9.8-0.5-14.2-0.8c3.5-2.4,7.1-4.7,11.9-7.9c0-1.9,0.5-5.8-0.1-9.6
		c-5.2-31.9,3.3-62.9,6.1-94.2c0.4-4.4,2.2-8.8,4-12.8c2.1-4.7,4.7-8.9,11.2-8.5c6.6,0.3,12.4,1.6,15.5,8.1c2,4.2,3.6,8.6,5.4,12.9
		c-0.7,0.5-1.4,0.9-2.1,1.4c-3.8-4-7.5-8.2-11.4-12.1c-6.8-6.9-9.4-6.4-12.4,3c-6.6,20.3-9.5,41.2-8.5,62.5
		c0.7,14.8,1.9,29.7,2.9,44.5c0.1,1,0.6,2.1,0.9,3.2c6-0.6,11.8-1.2,19.3-2c-4.1,10.5-13.7,5.1-19.3,11.1c1.8,9.9,3.3,21.2,5.9,32.3
		c3.5,14.8,8.3,29.3,11.5,44.1c3.1,14.4,8.4,27.5,18.6,38.2c2,2.1,4.8,3.4,7.3,5.1c1.9-2.9,4-5.8,5.7-8.8c1.6-2.9,2.7-6.1,4-9.2
		c5.8,2.8,3.3,7.6,2.6,11.8c-0.4,2.5-1.2,4.9-2.2,7.3c-3.5,8.2-8.5,9.4-16.1,5c-9.4-5.5-14.9-14.6-17.8-23.9
		c-9.7-30.8-17.7-62.1-26.4-93.2C320,227.2,319.3,224.8,318.5,222.2z"/>
	<path fill="#FFFFFF" d="M410.9,320.5c-13.7-39.8-26.1-80-34-121.6c-5.3,9.6-11.4,17.7-9.2,30.1c3.4,18.8,4,38.1,5.5,57.3
		c0.2,2.9-1,6-1.6,9c-1.1,0-2.1-0.1-3.2-0.1c-5.3-52.3-10.6-104.6-16-156.9c1-0.4,1.9-0.8,2.9-1.2c2,4.4,5.2,8.6,5.7,13.2
		c1.9,16.5,3,33.1,6,50.7c2.3-3.8,5-7.5,6.8-11.5c7.1-16,13.7-32.1,20.9-48c1-2.3,3.7-3.8,5.6-5.7c0.1,2.5,1.1,5.5,0.2,7.6
		c-5.4,13-11.2,25.8-16.7,38.8c-1.2,2.9-2.6,6.6-2,9.4c4.3,19.2,8.8,38.4,14,57.4c5.6,20.3,12.1,40.4,17.9,60.6
		c0.9,3.3,0.1,7.2,0.1,10.8C412.9,320.3,411.9,320.4,410.9,320.5z"/>
	<path fill="#FFFFFF" d="M114.6,270.8c-1.2,2.2-2.4,3.7-2.7,5.4c-1,4.7-3.5,10.4-1.9,14.2c3.5,8.4,8.6,16.3,14.2,23.5
		c6.6,8.4,16,10.6,25.8,6.5c9.9-4.1,14.4-13,16.6-23c4.4-20.2-0.6-39.2-8.1-57.6c-8.3-20.4-17.3-40.4-26.4-60.4
		c-4.9-10.8-7.1-21.7-6.2-33.6c0.7-10.2,6.1-17,14.7-20.9c9.8-4.4,20.2-1.1,27.8,6.5c19.3,19.4,16.8,46.6,6.7,60.5
		c-2.4,3.4-6.9,8.1-9.7,7.7c-4.4-0.7-8.2-5.2-13.1-8.8c2.6-1.3,3.2-1.9,3.5-1.8c13.4,5.6,14.4,5.1,19.5-8.9
		c6.7-18.5-3.3-43.1-21.1-52.1c-8.3-4.2-18.8,2-20.9,13.2c-2.3,12-0.8,23.5,3.9,35.3c11.1,28.2,29.4,53.6,33.6,84.3
		c1.7,12.4,3,25.2,1.7,37.6c-1.3,12.5-10.6,21.5-20,29.4c-5.4,4.5-19.9,3.5-24.8-2.8c-8.4-10.5-16.4-21.5-23.1-33.1
		C98.9,281.9,103,274.2,114.6,270.8z"/>
	<path fill="#FFFFFF" d="M490.1,356c-1.1-5.3-2.7-10.6-3.1-16c-0.9-14.5-1.2-29-1.8-43.5c-0.4-9.2-1.3-18.5-1.1-27.7
		c0-1.9,4.9-5.6,6-5.1c8.2,3.9,16.9,7.7,23.6,13.6c3.1,2.7,4.3,10.8,2.7,15.2c-3.2,9-8.9,17.1-14.1,26.6c8,10.4,17.1,22.2,26.3,34.2
		c-5.1,5.1-7.1,2.4-9.8-1.2c-6.4-8.4-13.4-16.3-20.1-24.4c-0.8,0.4-1.6,0.8-2.4,1.1c-0.6,9-1.3,18-1.9,27.1
		C493.1,355.9,491.6,356,490.1,356z M492.5,273c1.2,12,2.3,22.4,3.4,33.3c8.9-4.3,15.3-9.7,14.4-18.9
		C509.5,278.1,500.2,277.4,492.5,273z"/>
	<path fill="#FFFFFF" d="M439.4,281.9c-14.7,5.2-14.7,5.2-20.1,0.4c17.5-7.5,34.3-14.7,51.1-21.9c0.7,1.3,1.4,2.6,2,3.9
		c-7.7,4.4-15.3,8.9-23.9,13.8c1.8,3.7,4,7.5,5.6,11.5c4.9,12.8,10.1,25.6,14,38.7c1.6,5.3,0.8,11.5,0.1,17.2
		c-1.9,14.5-16.2,20.8-27.8,11.8c-4.6-3.6-7.4-9.6-10.3-14.9c-0.8-1.4,1-4.2,0.1-2.9c5.5,3.8,10.8,8.1,16.7,11.4
		c7.5,4.3,12.4,2.2,12.6-6.2c0.2-9.1-0.6-18.7-3.6-27.2C451.7,305.4,445.2,294,439.4,281.9z"/>
	<path fill="#FFFFFF" d="M529.1,329.8c11.3-1.2,14.3,2.9,11.3,14.6C530.4,343.4,528.7,341.4,529.1,329.8z"/>
</g>
</svg>
